<svg width="26" height="26" viewBox="0 0 26 26" fill="none" xmlns="http://www.w3.org/2000/svg">
<g clip-path="url(#clip0)">
<path d="M17.6084 8.39153C16.4391 7.22222 14.7883 6.4656 13 6.4656C11.2116 6.4656 9.56081 7.18783 8.3915 8.39153C7.22219 9.56084 6.46558 11.2116 6.46558 13C6.46558 14.7884 7.22219 16.4391 8.3915 17.6085C9.56081 18.7778 11.2116 19.5344 13 19.5344C14.7883 19.5344 16.4391 18.8122 17.6084 17.6085C18.7777 16.4391 19.5344 14.7884 19.5344 13C19.5344 11.2116 18.8121 9.56084 17.6084 8.39153ZM16.3703 16.3704C15.5105 17.2302 14.3068 17.746 13 17.746C11.6931 17.746 10.4894 17.2302 9.6296 16.3704C8.76981 15.5106 8.25394 14.3069 8.25394 13C8.25394 11.6931 8.76981 10.4894 9.6296 9.62962C10.4894 8.76984 11.6931 8.25396 13 8.25396C14.3068 8.25396 15.5105 8.76984 16.3703 9.62962C17.2301 10.4894 17.746 11.6931 17.746 13C17.746 14.3069 17.2301 15.5106 16.3703 16.3704Z" fill="#9A9A9A"/>
<path d="M25.1058 12.1058H22.4577C21.9762 12.1058 21.5635 12.5185 21.5635 13C21.5635 13.4815 21.9762 13.8942 22.4577 13.8942H25.1058C25.5873 13.8942 26 13.4815 26 13C26 12.5185 25.5873 12.1058 25.1058 12.1058Z" fill="#9A9A9A"/>
<path d="M13 21.5635C12.5185 21.5635 12.1058 21.9762 12.1058 22.4577V25.1058C12.1058 25.5873 12.5185 26 13 26C13.4815 26 13.8942 25.5873 13.8942 25.1058V22.4577C13.8942 21.9762 13.4815 21.5635 13 21.5635Z" fill="#9A9A9A"/>
<path d="M22.1825 20.9444L20.291 19.0529C19.9814 18.709 19.3968 18.709 19.0529 19.0529C18.7089 19.3968 18.7089 19.9471 19.0529 20.291L20.9444 22.1825C21.2883 22.5265 21.8386 22.5265 22.1825 22.1825C22.5264 21.8386 22.5264 21.2884 22.1825 20.9444Z" fill="#9A9A9A"/>
<path d="M13 0C12.5185 0 12.1058 0.412698 12.1058 0.89418V3.54233C12.1058 4.02381 12.5185 4.43651 13 4.43651C13.4815 4.43651 13.8942 4.02381 13.8942 3.54233V0.89418C13.8942 0.412698 13.4815 0 13 0Z" fill="#9A9A9A"/>
<path d="M22.2169 3.81745C21.873 3.47354 21.3227 3.47354 20.9788 3.81745L19.0873 5.70898C18.7434 6.0529 18.7434 6.60316 19.0873 6.94708C19.3968 7.29099 19.9815 7.29099 20.3254 6.94708L22.2169 5.05554C22.5608 4.71163 22.5608 4.16137 22.2169 3.81745Z" fill="#9A9A9A"/>
<path d="M3.54233 12.1058H0.89418C0.412698 12.1058 0 12.5185 0 13C0 13.4815 0.378307 13.8942 0.89418 13.8942H3.54233C4.02381 13.8942 4.43651 13.4815 4.43651 13C4.43651 12.5185 4.02381 12.1058 3.54233 12.1058Z" fill="#9A9A9A"/>
<path d="M6.91271 19.0529C6.60319 18.709 6.01853 18.709 5.67462 19.0529L3.78308 20.9444C3.43917 21.2884 3.43917 21.8386 3.78308 22.1825C4.127 22.5265 4.67726 22.5265 5.02118 22.1825L6.91271 20.291C7.25663 19.9471 7.25663 19.3968 6.91271 19.0529Z" fill="#9A9A9A"/>
<path d="M6.91271 5.70898L5.02118 3.81745C4.67726 3.47354 4.127 3.47354 3.78308 3.81745C3.43917 4.16137 3.43917 4.71163 3.78308 5.05554L5.67462 6.94708C6.01853 7.29099 6.5688 7.29099 6.91271 6.94708C7.25663 6.60316 7.25663 6.0529 6.91271 5.70898Z" fill="#9A9A9A"/>
</g>
<defs>
<clipPath id="clip0">
<rect width="26" height="26" fill="white"/>
</clipPath>
</defs>
</svg>
