<svg width="17" height="17" viewBox="0 0 17 17" fill="none" xmlns="http://www.w3.org/2000/svg">
<path d="M10.1616 8.89632L15.8902 3.18103C16.141 2.93017 16.282 2.58992 16.282 2.23515C16.282 1.88037 16.141 1.54013 15.8902 1.28926C15.6393 1.0384 15.2991 0.897461 14.9443 0.897461C14.5895 0.897461 14.2493 1.0384 13.9984 1.28926L8.28312 7.01787L2.56783 1.28926C2.31696 1.0384 1.97672 0.897461 1.62194 0.897461C1.26717 0.897461 0.92692 1.0384 0.676055 1.28926C0.425191 1.54013 0.284256 1.88037 0.284256 2.23515C0.284256 2.58992 0.425191 2.93017 0.676055 3.18103L6.40467 8.89632L0.676055 14.6116C0.551187 14.7355 0.452077 14.8828 0.384441 15.0452C0.316805 15.2075 0.281982 15.3816 0.281982 15.5575C0.281982 15.7334 0.316805 15.9075 0.384441 16.0698C0.452077 16.2322 0.551187 16.3795 0.676055 16.5034C0.799904 16.6283 0.94725 16.7274 1.1096 16.795C1.27194 16.8626 1.44607 16.8975 1.62194 16.8975C1.79781 16.8975 1.97194 16.8626 2.13429 16.795C2.29663 16.7274 2.44398 16.6283 2.56783 16.5034L8.28312 10.7748L13.9984 16.5034C14.1223 16.6283 14.2696 16.7274 14.4319 16.795C14.5943 16.8626 14.7684 16.8975 14.9443 16.8975C15.1202 16.8975 15.2943 16.8626 15.4566 16.795C15.619 16.7274 15.7663 16.6283 15.8902 16.5034C16.015 16.3795 16.1142 16.2322 16.1818 16.0698C16.2494 15.9075 16.2843 15.7334 16.2843 15.5575C16.2843 15.3816 16.2494 15.2075 16.1818 15.0452C16.1142 14.8828 16.015 14.7355 15.8902 14.6116L10.1616 8.89632Z" fill="#745FF2"/>
</svg>
