<svg width="15" height="19" viewBox="0 0 15 19" fill="none" xmlns="http://www.w3.org/2000/svg">
<path d="M3.03716 8.40781C2.12257 8.40781 1.42553 8.197 0.946043 7.77538C0.466552 7.35375 0.226807 6.79049 0.226807 6.08559V2.53803C0.226807 1.80678 0.457673 1.23363 0.919405 0.818598C1.38114 0.403562 2.08705 0.196045 3.03716 0.196045C3.9695 0.196045 4.67098 0.406856 5.14159 0.828479C5.6122 1.24351 5.84751 1.81336 5.84751 2.53803V6.08559C5.84751 6.79049 5.60776 7.35375 5.12827 7.77538C4.64878 8.197 3.95174 8.40781 3.03716 8.40781ZM3.03716 7.23188C3.6676 7.23188 3.98282 6.84319 3.98282 6.06583V2.55779C3.98282 2.20864 3.91622 1.92536 3.78303 1.70796C3.65872 1.48397 3.4101 1.37198 3.03716 1.37198C2.65534 1.37198 2.40228 1.48397 2.27796 1.70796C2.15365 1.92536 2.09149 2.20864 2.09149 2.55779V6.06583C2.09149 6.38863 2.15809 6.66532 2.29128 6.8959C2.43335 7.11988 2.68198 7.23188 3.03716 7.23188Z" fill="#00FF57"/>
<path d="M12.1408 18.8548C11.2262 18.8548 10.5292 18.644 10.0497 18.2224C9.57019 17.8008 9.33044 17.2375 9.33044 16.5326V12.9851C9.33044 12.2538 9.56131 11.6807 10.023 11.2656C10.4848 10.8506 11.1907 10.6431 12.1408 10.6431C13.0731 10.6431 13.7746 10.8539 14.2452 11.2755C14.7158 11.6905 14.9511 12.2604 14.9511 12.9851V16.5326C14.9511 17.2375 14.7114 17.8008 14.2319 18.2224C13.7524 18.644 13.0554 18.8548 12.1408 18.8548ZM12.1408 17.6789C12.7712 17.6789 13.0865 17.2902 13.0865 16.5128V13.0048C13.0865 12.6557 13.0199 12.3724 12.8867 12.155C12.7624 11.931 12.5137 11.819 12.1408 11.819C11.759 11.819 11.5059 11.931 11.3816 12.155C11.2573 12.3724 11.1951 12.6557 11.1951 13.0048V16.5128C11.1951 16.8357 11.2617 17.1123 11.3949 17.3429C11.537 17.5669 11.7856 17.6789 12.1408 17.6789Z" fill="#00FF57"/>
<rect x="0.226807" y="17.6529" width="21.841" height="2" transform="rotate(-53.0606 0.226807 17.6529)" fill="#00FF57"/>
</svg>
