<svg width="17" height="17" viewBox="0 0 17 17" fill="none" xmlns="http://www.w3.org/2000/svg">
<path d="M0.283203 9.41521V8.37966C0.283203 7.76111 0.740314 7.25964 1.30423 7.25964H15.2622C15.8261 7.25964 16.2832 7.76107 16.2832 8.37966V9.41521C16.2832 10.0338 15.8261 10.5352 15.2622 10.5352H1.30423C0.740347 10.5352 0.283203 10.0338 0.283203 9.41521Z" fill="#745FF2"/>
<path d="M8.28324 4.95147C9.40274 4.95147 10.3103 4.04394 10.3103 2.92445C10.3103 1.80496 9.40274 0.89743 8.28324 0.89743C7.16375 0.89743 6.25623 1.80496 6.25623 2.92445C6.25623 4.04394 7.16375 4.95147 8.28324 4.95147Z" fill="#745FF2"/>
<path d="M8.28324 16.8974C9.40274 16.8974 10.3103 15.9899 10.3103 14.8704C10.3103 13.7509 9.40274 12.8434 8.28324 12.8434C7.16375 12.8434 6.25623 13.7509 6.25623 14.8704C6.25623 15.9899 7.16375 16.8974 8.28324 16.8974Z" fill="#745FF2"/>
</svg>
